<?xml version="1.0" encoding="UTF-8"?>
<svg xmlns="http://www.w3.org/2000/svg" xmlns:xlink="http://www.w3.org/1999/xlink" width="24px" height="24px" viewBox="0 0 24 24" version="1.1">
<g id="surface1">
<path style=" stroke:none;fill-rule:nonzero;fill:rgb(0%,0%,0%);fill-opacity:1;" d="M 21.671875 2.941406 C 19.117188 0.761719 15.289062 1.113281 12.921875 3.5625 L 12 4.527344 L 11.078125 3.5625 C 9.167969 1.585938 5.3125 0.410156 2.332031 2.941406 C -0.613281 5.445312 -0.765625 9.960938 1.867188 12.679688 L 10.921875 22.039062 C 11.21875 22.34375 11.617188 22.5 11.996094 22.5 C 12.382812 22.5 12.761719 22.347656 13.054688 22.042969 L 22.128906 12.675781 C 24.773438 9.960938 24.613281 5.445312 21.671875 2.941406 Z M 21.0625 11.632812 L 12.019531 21.003906 L 2.941406 11.632812 C 1.144531 9.78125 0.769531 6.242188 3.304688 4.082031 C 5.875 1.886719 8.898438 3.480469 10 4.621094 L 12.003906 6.691406 L 14.007812 4.621094 C 15.089844 3.496094 18.136719 1.902344 20.699219 4.082031 C 23.226562 6.238281 22.855469 9.777344 21.0625 11.632812 Z M 21.0625 11.632812 "/>
</g>
</svg>
